<?xml version="1.0" encoding="UTF-8" standalone="no"?>
<svg
   xmlns:dc="http://purl.org/dc/elements/1.1/"
   xmlns:cc="http://creativecommons.org/ns#"
   xmlns:rdf="http://www.w3.org/1999/02/22-rdf-syntax-ns#"
   xmlns:svg="http://www.w3.org/2000/svg"
   xmlns="http://www.w3.org/2000/svg"
   xmlns:sodipodi="http://sodipodi.sourceforge.net/DTD/sodipodi-0.dtd"
   xmlns:inkscape="http://www.inkscape.org/namespaces/inkscape"
   viewBox="-1352 24 157.002 41.896419"
   version="1.1"
   id="svg26"
   sodipodi:docname="logo-redehost.svg"
   width="157.002"
   height="41.89642"
   inkscape:version="0.92.3 (2405546, 2018-03-11)">
  <metadata
     id="metadata30">
    <rdf:RDF>
      <cc:Work
         rdf:about="">
        <dc:format>image/svg+xml</dc:format>
        <dc:type
           rdf:resource="http://purl.org/dc/dcmitype/StillImage" />
        <dc:title></dc:title>
      </cc:Work>
    </rdf:RDF>
  </metadata>
  <sodipodi:namedview
     pagecolor="#ffffff"
     bordercolor="#666666"
     borderopacity="1"
     objecttolerance="10"
     gridtolerance="10"
     guidetolerance="10"
     inkscape:pageopacity="0"
     inkscape:pageshadow="2"
     inkscape:window-width="1920"
     inkscape:window-height="1001"
     id="namedview28"
     showgrid="false"
     fit-margin-bottom="10"
     fit-margin-top="0"
     fit-margin-left="0"
     fit-margin-right="0"
     inkscape:zoom="2.1592357"
     inkscape:cx="78.5"
     inkscape:cy="25.948919"
     inkscape:window-x="-9"
     inkscape:window-y="-9"
     inkscape:window-maximized="1"
     inkscape:current-layer="svg26" />
  <defs
     id="defs11">
    <style
       id="style2">
      .cls-1 {
        fill: #343d40;
      }

      .cls-2 {
        fill: url(#radial-gradient);
      }

      .cls-3 {
        clip-path: url(#clip-path);
      }

      .cls-4 {
        fill: #9e4400;
        opacity: 0.4;
      }
    </style>
    <radialGradient
       id="radial-gradient"
       cx="18.174999"
       cy="8.4650002"
       r="18.136"
       gradientUnits="userSpaceOnUse">
      <stop
         offset="0"
         stop-color="#f4a94e"
         id="stop4" />
      <stop
         offset="0.903"
         stop-color="#ef843c"
         id="stop6" />
    </radialGradient>
    <clipPath
       id="clip-path">
      <path
         id="Path_21"
         data-name="Path 21"
         d="m 16.884,22.038 a 7.436,7.436 0 0 0 4.535,-6.671 c 0,-2.961 -1.612,-5.716 -3.973,-6.371 A 4.439,4.439 0 0 0 16.041,5.21 4.315,4.315 0 0 0 11.841,4.442 C 10.757,1.387 8.339,0 4.835,0 2.249,0 0,1.48 0,2.961 v 4.666 a 5.5,5.5 0 0 1 4.685,-2.792 5.5,5.5 0 0 1 5.228,4.01 2.855,2.855 0 0 1 1.93,-0.75 2.8,2.8 0 0 1 2.923,2.736 2.348,2.348 0 0 1 -0.693,1.836 c 2.417,0 3.429,5.341 -1.518,5.341 H 5.06 C 2.211,18.009 0,19.9 0,23.874 v 8 H 5.36 V 25.3 c 0,-1.405 0.056,-2.024 1.743,-2.024 h 4.423 l 4.254,8.6 h 5.959 z"
         inkscape:connector-curvature="0" />
    </clipPath>
  </defs>
  <g
     id="Group_118"
     data-name="Group 118"
     transform="translate(-1352,24)">
    <path
       id="Path_13"
       data-name="Path 13"
       class="cls-1"
       d="m 581.263,52.9 a 10.958,10.958 0 0 0 -7.777,18.683 10.861,10.861 0 0 0 15.554,0 10.925,10.925 0 0 0 -7.777,-18.683 z m 3.9,14.935 a 5.474,5.474 0 0 1 -7.777,-0.019 5.822,5.822 0 0 1 -0.019,-7.983 5.245,5.245 0 0 1 3.9,-1.612 5.168,5.168 0 0 1 3.86,1.63 5.457,5.457 0 0 1 1.593,3.973 5.573,5.573 0 0 1 -1.56,4.011 z"
       transform="translate(-463.428,-42.987)"
       inkscape:connector-curvature="0"
       style="fill:#343d40" />
    <path
       id="Path_14"
       data-name="Path 14"
       class="cls-1"
       d="m 718.21,29.943 v -5.565 h -4.216 V 17.8 h -5.547 v 6.578 H 697.69 a 7.133,7.133 0 0 0 -5.322,1.949 5.991,5.991 0 0 0 -1.555,4.31 4.892,4.892 0 0 0 0.918,3.055 c 0.6,0.806 2.043,1.743 4.329,2.792 1.068,0.506 1.649,0.787 1.724,0.843 1.218,0.656 1.818,1.349 1.818,2.08 a 1.126,1.126 0 0 1 -0.806,1.143 4.171,4.171 0 0 1 -1.424,0.225 H 690.7 v 5.547 h 6.465 c 3.373,0 5.772,-0.956 7.2,-2.642 a 5.874,5.874 0 0 0 1.293,-3.917 5.473,5.473 0 0 0 -2.043,-4.423 24.148,24.148 0 0 0 -4.479,-2.492 c -0.974,-0.45 -1.555,-0.731 -1.724,-0.843 -0.6,-0.356 -0.881,-0.75 -0.881,-1.162 a 0.75,0.75 0 0 1 0.319,-0.712 1.744,1.744 0 0 1 0.843,-0.206 h 10.775 v 7.8 a 17.248,17.248 0 0 0 0.281,3.767 5.727,5.727 0 0 0 2.267,3.467 6.9,6.9 0 0 0 2.436,1.106 26.518,26.518 0 0 0 3.336,0.262 h 1.48 v -5.552 h -1.48 a 2.656,2.656 0 0 1 -2.38,-1.049 4.34,4.34 0 0 1 -0.375,-1.986 v -7.8 z"
       transform="translate(-561.266,-14.464)"
       inkscape:connector-curvature="0"
       style="fill:#343d40" />
    <path
       id="Path_15"
       data-name="Path 15"
       class="cls-1"
       d="m 483.218,30.318 h -7.739 V 17.8 H 470.4 v 28.54 h 5.078 V 35.115 h 7.739 V 46.34 h 4.816 V 17.8 h -4.816 z"
       transform="translate(-382.249,-14.464)"
       inkscape:connector-curvature="0"
       style="fill:#343d40" />
    <path
       id="Path_16"
       data-name="Path 16"
       class="cls-1"
       d="M 356.425,52.8 A 10.565,10.565 0 0 0 345.5,63.781 10.9,10.9 0 0 0 356.313,74.8 c 4.535,0 8.133,-2.53 10.082,-7.177 h -3.017 a 7.929,7.929 0 0 1 -15.123,-2.98 h 18.8 V 64.456 C 367.05,57.447 362.59,52.8 356.425,52.8 Z m -8.1,9.576 c 0.656,-4.423 3.767,-7.065 7.721,-7.065 4.348,0 7.065,2.4 8.058,7.065 H 348.33 Z"
       transform="translate(-280.755,-42.906)"
       inkscape:connector-curvature="0"
       style="fill:#343d40" />
    <path
       id="Path_17"
       data-name="Path 17"
       class="cls-1"
       d="M 127.325,52.8 A 10.565,10.565 0 0 0 116.4,63.781 10.9,10.9 0 0 0 127.213,74.8 c 4.535,0 8.133,-2.53 10.082,-7.177 h -3.017 a 7.929,7.929 0 0 1 -15.123,-2.98 h 18.8 V 64.456 C 137.95,57.447 133.49,52.8 127.325,52.8 Z m -8.1,9.576 c 0.656,-4.423 3.767,-7.065 7.721,-7.065 4.348,0 7.065,2.4 8.058,7.065 H 119.23 Z"
       transform="translate(-94.587,-42.906)"
       inkscape:connector-curvature="0"
       style="fill:#343d40" />
    <path
       id="Path_18"
       data-name="Path 18"
       class="cls-1"
       d="m 252.247,17.6 v 10.382 a 9.663,9.663 0 0 0 -7.964,-3.785 10.494,10.494 0 0 0 -8.883,4.647 12.874,12.874 0 0 1 1.312,3.561 8.115,8.115 0 0 1 7.646,-5.716 c 4.066,0 7.964,3.673 7.964,8.676 a 8.428,8.428 0 0 1 -7.964,8.32 8.064,8.064 0 0 1 -7.646,-5.847 13.343,13.343 0 0 1 -1.312,3.6 10.639,10.639 0 0 0 8.939,4.76 10.51,10.51 0 0 0 10.588,-9.932 V 17.619 h -2.68 z"
       transform="translate(-191.287,-14.302)"
       inkscape:connector-curvature="0"
       style="fill:#343d40" />
    <g
       id="Group_120"
       data-name="Group 120">
      <g
         id="Group_119"
         data-name="Group 119">
        <path
           id="Path_19"
           data-name="Path 19"
           class="cls-2"
           d="m 16.884,22.038 a 7.436,7.436 0 0 0 4.535,-6.671 c 0,-2.961 -1.612,-5.716 -3.973,-6.371 A 4.439,4.439 0 0 0 16.041,5.21 4.315,4.315 0 0 0 11.841,4.442 C 10.757,1.387 8.339,0 4.835,0 2.249,0 0,1.48 0,2.961 v 4.666 a 5.5,5.5 0 0 1 4.685,-2.792 5.5,5.5 0 0 1 5.228,4.01 2.855,2.855 0 0 1 1.93,-0.75 2.8,2.8 0 0 1 2.923,2.736 2.348,2.348 0 0 1 -0.693,1.836 c 2.417,0 3.429,5.341 -1.518,5.341 H 5.06 C 2.211,18.009 0,19.9 0,23.874 v 8 H 5.36 V 25.3 c 0,-1.405 0.056,-2.024 1.743,-2.024 h 4.423 l 4.254,8.6 h 5.959 z"
           inkscape:connector-curvature="0"
           style="fill:url(#radial-gradient)" />
        <g
           id="Group_118-2"
           data-name="Group 118"
           class="cls-3"
           clip-path="url(#clip-path)">
          <path
             id="Path_20"
             data-name="Path 20"
             class="cls-4"
             d="m 46.4,43.181 c 5.491,-0.187 4.066,-5.1 1.893,-5.228 1.649,-2.23 -0.375,-6.409 -4.141,-4.31 A 3.7,3.7 0 0 0 41.4,31 a 6.763,6.763 0 0 1 2.155,3.036 v 0 c 2.68,-2.193 6.353,1.162 4.141,3.823 2.904,0.618 2.755,5.247 -1.296,5.322 z"
             transform="translate(-33.642,-25.191)"
             inkscape:connector-curvature="0"
             style="opacity:0.4;fill:#9e4400" />
        </g>
      </g>
      <path
         id="Path_22"
         data-name="Path 22"
         class="cls-4"
         d="m 61.4,119.893 1.106,2.23 c 0,0 -0.075,-1.462 3.748,-3.223 a 11.579,11.579 0 0 1 -4.854,0.993 z"
         transform="translate(-49.894,-96.619)"
         inkscape:connector-curvature="0"
         style="opacity:0.4;fill:#9e4400" />
    </g>
  </g>
</svg>
